{"title":"Pig Hunt 2008 DVDRip BigPerm LKRG","uid":5757247,"size":1247907679,"categoryP":"video","categoryS":"movies","magnet":"?xt=urn:btih:31874d421d4bff25577d5fd6ca2a2bc61667838e&amp;dn=Pig+Hunt+2008+DVDRip+BigPerm+LKRG&amp;tr=udp%3A%2F%2Ftracker.openbittorrent.com%3A80&amp;tr=udp%3A%2F%2Fopen.demonii.com%3A1337&amp;tr=udp%3A%2F%2Ftracker.coppersurfer.tk%3A6969&amp;tr=udp%3A%2F%2Fexodus.desync.com%3A6969","seeders":0,"leechers":0,"uploader":"LKRG","files":-1,"time":1281606221,"description":" &lt;a href=&quot;http://img694.imageshack.us/img694/5639/lkrg.gif&quot; rel=&quot;nofollow&quot; target=&quot;_NEW&quot;&gt;http://img694.imageshack.us/img694/5639/lkrg.gif&lt;/a&gt;\n\n\nWhen John takes his San Francisco friends to his deceased uncle\\\\\\\\\\\\\\'s remote ranch to hunt wild pigs, it seems like a typical guys weekend with guns.\n\nCast:\n\nTravis Aaron Wade ... John Hickman\nTina Huang ... Brooks\nHoward Johnson Jr. ... Ben\nTrevor Bullock ... Quincy\nRajiv Shah ... Wayne\nJason Foster ... Jake\nNick Tagas ... Ricky\nPhillip K. Torretto ... Beer Belly Redneck\n &lt;a href=&quot;\nhttp://img824.imageshack.us/img824/6273/pig1.png&quot; rel=&quot;nofollow&quot; target=&quot;_NEW&quot;&gt;\nhttp://img824.imageshack.us/img824/6273/pig1.png&lt;/a&gt; &lt;a href=&quot;\nhttp://img842.imageshack.us/img842/6018/pig2.png&quot; rel=&quot;nofollow&quot; target=&quot;_NEW&quot;&gt;\nhttp://img842.imageshack.us/img842/6018/pig2.png&lt;/a&gt; &lt;a href=&quot;\nhttp://img814.imageshack.us/img814/8701/pig3.png&quot; rel=&quot;nofollow&quot; target=&quot;_NEW&quot;&gt;\nhttp://img814.imageshack.us/img814/8701/pig3.png&lt;/a&gt; &lt;a href=&quot;\nhttp://img812.imageshack.us/img812/9032/pig4.png&quot; rel=&quot;nofollow&quot; target=&quot;_NEW&quot;&gt;\nhttp://img812.imageshack.us/img812/9032/pig4.png&lt;/a&gt; &lt;a href=&quot;\nhttp://img594.imageshack.us/img594/3839/pig5.png&quot; rel=&quot;nofollow&quot; target=&quot;_NEW&quot;&gt;\nhttp://img594.imageshack.us/img594/3839/pig5.png&lt;/a&gt; &lt;a href=&quot;\nhttp://img534.imageshack.us/img534/1613/pig6.png&quot; rel=&quot;nofollow&quot; target=&quot;_NEW&quot;&gt;\nhttp://img534.imageshack.us/img534/1613/pig6.png&lt;/a&gt;\n\n\n\nGeneral\nComplete name : Pig Hunt 2008 DVDRip BigPerm LKRG\\\\\\\\\\\\\\\\PH_LKRG.m4v\nFormat : MPEG-4\nFormat profile : Base Media / Version 2\nCodec ID : mp42\nFile size : 1.16 GiB\nDuration : 1h 38mn\nOverall bit rate : 1 684 Kbps\n\nVideo\nID : 1\nFormat : AVC\nFormat/Info : Advanced Video Codec\nFormat profile : &lt;a class=&quot;__cf_email__&quot; href=&quot;/cdn-cgi/l/email-protection&quot; data-cfemail=&quot;eea38f8780aea2ddc0de&quot;&gt;[email&amp;#160;protected]&lt;/a&gt;&lt;script data-cfhash='f9e31' type=&quot;text/javascript&quot;&gt;\n/* &lt;![CDATA[ */!function(){try{var t=&quot;currentScript&quot;in document?document.currentScript:function(){for(var t=document.getElementsByTagName(&quot;script&quot;),e=t.length;e--;)if(t[e].getAttribute(&quot;data-cfhash&quot;))return t[e]}();if(t&amp;&amp;t.previousSibling){var e,r,n,i,c=t.previousSibling,a=c.getAttribute(&quot;data-cfemail&quot;);if(a){for(e=&quot;&quot;,r=parseInt(a.substr(0,2),16),n=2;a.length-n;n+=2)i=parseInt(a.substr(n,2),16)^r,e+=String.fromCharCode(i);e=document.createTextNode(e),c.parentNode.replaceChild(e,c)}t.parentNode.removeChild(t);}}catch(u){}}()/* ]]&gt; */&lt;/script&gt;\nFormat settings, CABAC : Yes\nFormat settings, ReFrames : 2 frames\nCodec ID : avc1\nCodec ID/Info : Advanced Video Coding\nDuration : 1h 38mn\nBit rate mode : Variable\nBit rate : 1 519 Kbps\nWidth : 720 pixels\nHeight : 480 pixels\nDisplay aspect ratio : 16:9\nFrame rate mode : Variable\nFrame rate : 24.000 fps\nMinimum frame rate : 14.985 fps\nMaximum frame rate : 62.805 fps\nOriginal frame rate : 23.976 fps\nStandard : NTSC\nResolution : 8 bits\nColorimetry : 4:2:0\nScan type : Progressive\nBits/(Pixel*Frame) : 0.183\nStream size : 1.05 GiB (90%)\nWriting library : x264 core 79\n\nAudio\nID : 2\nFormat : AAC\nFormat/Info : Advanced Audio Codec\nFormat version : Version 4\nFormat profile : LC\nFormat settings, SBR : No\nCodec ID : 40\nDuration : 1h 38mn\nBit rate mode : Variable\nBit rate : 159 Kbps\nMaximum bit rate : 255 Kbps\nChannel(s) : 2 channels\nChannel positions : Front: L R\nSampling rate : 48.0 KHz\nStream size : 113 MiB (9%)\nLanguage : English\n &lt;a href=&quot;\nhttp://www.imdb.com/title/tt1022883/&quot; rel=&quot;nofollow&quot; target=&quot;_NEW&quot;&gt;\nhttp://www.imdb.com/title/tt1022883/&lt;/a&gt;","torrent":{"xt":"urn:btih:31874d421d4bff25577d5fd6ca2a2bc61667838e","amp;dn":"Pig+Hunt+2008+DVDRip+BigPerm+LKRG","amp;tr":["udp%3A%2F%2Ftracker.openbittorrent.com%3A80","udp%3A%2F%2Fopen.demonii.com%3A1337","udp%3A%2F%2Ftracker.coppersurfer.tk%3A6969","udp%3A%2F%2Fexodus.desync.com%3A6969"],"infoHash":"31874d421d4bff25577d5fd6ca2a2bc61667838e","infoHashBuffer":{"type":"Buffer","data":[49,135,77,66,29,75,255,37,87,125,95,214,202,42,43,198,22,103,131,142]},"announce":[],"urlList":[]}}